<svg xmlns="http://www.w3.org/2000/svg" viewBox="0 0 60 40" role="img" aria-label="United Kingdom flag">
  <rect width="60" height="40" fill="#012169"/>
  <polygon points="0,0 6,0 60,32 60,40 54,40 0,8" fill="#FFFFFF"/>
  <polygon points="60,0 54,0 0,32 0,40 6,40 60,8" fill="#FFFFFF"/>
  <polygon points="0,0 3.6,0 60,33.2 60,40 56.4,40 0,6.8" fill="#C8102E"/>
  <polygon points="60,0 56.4,0 0,33.2 0,40 3.6,40 60,6.8" fill="#C8102E"/>
  <rect x="24" y="0" width="12" height="40" fill="#FFFFFF"/>
  <rect x="0" y="14" width="60" height="12" fill="#FFFFFF"/>
  <rect x="26" y="0" width="8" height="40" fill="#C8102E"/>
  <rect x="0" y="16" width="60" height="8" fill="#C8102E"/>
</svg>
